<?xml version="1.0" encoding="utf-8"?>
<!-- Generator: Adobe Illustrator 18.1.0, SVG Export Plug-In . SVG Version: 6.00 Build 0)  -->
<!DOCTYPE svg PUBLIC "-//W3C//DTD SVG 1.1//EN" "http://www.w3.org/Graphics/SVG/1.1/DTD/svg11.dtd">
<svg version="1.1" id="Layer_1" xmlns="http://www.w3.org/2000/svg" xmlns:xlink="http://www.w3.org/1999/xlink" x="0px" y="0px"
	 viewBox="5.8 4.2 22.2 11.6" enable-background="new 5.8 4.2 22.2 11.6" xml:space="preserve">
<g>
	<path fill="#FFFFFF" d="M6.3,9.3V4.4h2.4v0.7H7.1v1.3h1.1v0.7H7.1v2.2L6.3,9.3L6.3,9.3z"/>
	<path fill="#FFFFFF" d="M9.2,9.3V4.4H10v4.2h1.3v0.7L9.2,9.3L9.2,9.3z"/>
	<path fill="#FFFFFF" d="M12.6,9.3h-0.8l0.9-4.9h1l0.9,4.9h-0.8l-0.1-1.1h-0.9L12.6,9.3z M12.9,7.5h0.7l-0.3-2.1h0L12.9,7.5z"/>
	<path fill="#FFFFFF" d="M15.3,5.1h-0.8V4.4H17v0.7h-0.8v4.2h-0.8V5.1z"/>
	<path fill="#FFFFFF" d="M17.5,9.3V4.4h0.8v4.9H17.5z"/>
	<path fill="#FFFFFF" d="M19.8,9.3H19V4.4h1.2c0.9,0,1.4,0.4,1.4,1.4c0,0.8-0.3,1.1-0.6,1.2l0.7,2.2h-0.9l-0.6-2c-0.1,0-0.3,0-0.4,0
		L19.8,9.3L19.8,9.3z M19.8,6.6h0.3c0.5,0,0.6-0.2,0.6-0.8s-0.2-0.8-0.6-0.8h-0.3V6.6z"/>
	<path fill="#FFFFFF" d="M22.1,5.6c0-0.7,0.4-1.3,1.3-1.3c0.9,0,1.3,0.6,1.3,1.3v2.5c0,0.7-0.4,1.3-1.3,1.3c-0.9,0-1.3-0.6-1.3-1.3
		V5.6z M23,8.1c0,0.4,0.1,0.5,0.5,0.5c0.3,0,0.5-0.2,0.5-0.5V5.6c0-0.4-0.1-0.5-0.5-0.5C23.1,5,23,5.2,23,5.6V8.1z"/>
	<path fill="#FFFFFF" d="M25.3,9.3V4.4H26l1,2.8h0V4.4h0.8v4.9h-0.7L26,6.2h0v3.1H25.3z"/>
	<path fill="#FFFFFF" d="M7.8,11.6c0-0.4-0.3-0.5-0.5-0.5C7.1,11,7,11.2,7,11.5c0,0.8,1.7,1.2,1.7,2.6c0,0.8-0.5,1.3-1.3,1.3
		c-0.8,0-1.2-0.6-1.3-1.4l0.8-0.1c0,0.5,0.2,0.7,0.5,0.7c0.3,0,0.5-0.2,0.5-0.5c0-1-1.7-1.2-1.7-2.6c0-0.8,0.5-1.2,1.3-1.2
		c0.7,0,1.1,0.5,1.2,1.2L7.8,11.6z"/>
	<path fill="#FFFFFF" d="M10.8,12v-0.4c0-0.4-0.2-0.6-0.4-0.6c-0.3,0-0.5,0.2-0.5,0.5v2.5c0,0.4,0.1,0.5,0.5,0.5
		c0.3,0,0.4-0.2,0.4-0.5v-0.6h0.8v0.6c0,0.7-0.4,1.3-1.2,1.3c-0.9,0-1.3-0.6-1.3-1.3v-2.5c0-0.7,0.4-1.3,1.3-1.3
		c0.8,0,1.2,0.6,1.2,1.3V12H10.8z"/>
	<path fill="#FFFFFF" d="M12.3,15.3v-4.9h0.8v2H14v-2h0.8v4.9H14v-2.2h-0.9v2.2H12.3z"/>
	<path fill="#FFFFFF" d="M15.5,11.6c0-0.7,0.4-1.3,1.3-1.3c0.9,0,1.3,0.6,1.3,1.3v2.5c0,0.7-0.4,1.3-1.3,1.3c-0.9,0-1.3-0.6-1.3-1.3
		V11.6z M16.3,14.1c0,0.4,0.1,0.5,0.5,0.5c0.3,0,0.5-0.2,0.5-0.5v-2.5c0-0.4-0.1-0.5-0.5-0.5c-0.3,0-0.5,0.2-0.5,0.5V14.1z"/>
	<path fill="#FFFFFF" d="M18.7,11.6c0-0.7,0.4-1.3,1.3-1.3c0.9,0,1.3,0.6,1.3,1.3v2.5c0,0.7-0.4,1.3-1.3,1.3c-0.9,0-1.3-0.6-1.3-1.3
		V11.6z M19.6,14.1c0,0.4,0.1,0.5,0.5,0.5c0.3,0,0.5-0.2,0.5-0.5v-2.5c0-0.4-0.1-0.5-0.5-0.5c-0.3,0-0.5,0.2-0.5,0.5
		C19.6,11.6,19.6,14.1,19.6,14.1z"/>
	<path fill="#FFFFFF" d="M21.9,15.3v-4.9h0.8v4.2h1.3v0.7L21.9,15.3L21.9,15.3z"/>
</g>
</svg>
