<?xml version="1.0" encoding="utf-8"?>
<!-- Generator: Adobe Illustrator 18.1.0, SVG Export Plug-In . SVG Version: 6.00 Build 0)  -->
<!DOCTYPE svg PUBLIC "-//W3C//DTD SVG 1.1//EN" "http://www.w3.org/Graphics/SVG/1.1/DTD/svg11.dtd">
<svg version="1.1" xmlns="http://www.w3.org/2000/svg" xmlns:xlink="http://www.w3.org/1999/xlink" x="0px" y="0px"
	 viewBox="0 0 40 40" enable-background="new 0 0 40 40" xml:space="preserve">
<g id="Layer_1">
	<path fill="#FFFFFF" d="M35.8,8.3H4.2c0,0-0.1,0-0.1,0.1v31.6c0,0,0,0.1,0.1,0.1h16.9V27.7h-4.1v-4.8h4.1v-3.5
		c0-4.1,2.5-6.3,6.2-6.3c1.8,0,3.3,0.1,3.7,0.2v4.3l-2.5,0c-2,0-2.4,0.9-2.4,2.3v3.1h4.7l-0.6,4.8H26V40h9.8c0,0,0.1,0,0.1-0.1
		L35.8,8.3C35.9,8.3,35.8,8.3,35.8,8.3z"/>
</g>
<g id="Layer_2">
</g>
</svg>
